# xmcd
#
# Track frame offsets:
#	150
#	12125
#	29819
#	39925
#	66303
#	81353
#	107761
#	130826
#	151743
#	183550
#	211470
#	233769
#	246043
#	256216
#	268817
#	290643
#	312074
#
# Disc length: 4504
#
# Revision: 5
# Processed by: cddbd v1.5.1PL0 Copyright (c) Steve Scherf et al.
# Submitted via: CDex 1.51
# Normalized: r4:DSETVAR1,TDELIM( - )
#
DISCID=ee119611
DTITLE=Various Artist - Sunshine
DYEAR=2001
DGENRE=Blues
TTITLE0=Sergio Mendes - Mas que nada
TTITLE1=Roy Ayers - Everybody loves the sunshine
TTITLE2=Jimmy Smith - Organ grinder's swing
TTITLE3=Dianna Krall - Peel me a grape
TTITLE4=Wes Montgomery - Tequila
TTITLE5=Ramsey Lewis - The "in" crowd
TTITLE6=Ronny Jordan - So what!
TTITLE7=Us3 - Cantaloop (flip fantasia)
TTITLE8=Herbie Hancock - Watermelon man
TTITLE9=The Isley Brothers - Summer breeze
TTITLE10=George Benson - The getto
TTITLE11=Quincy Jones - Soul bossa nova
TTITLE12=Tony Bennett - The good life
TTITLE13=Julie London - Cry me a river
TTITLE14=Oscar Peterson Trio - Night train
TTITLE15=Ella Fitzgerald - Mack the knife
TTITLE16=Dizzy Gilespie, Sonny Rollins&Sonny Stitt - On the sunny side of the street
EXTD=YEAR: 2001
EXTT0=
EXTT1=
EXTT2=
EXTT3=
EXTT4=
EXTT5=
EXTT6=
EXTT7=
EXTT8=
EXTT9=
EXTT10=
EXTT11=
EXTT12=
EXTT13=
EXTT14=
EXTT15=
EXTT16=
PLAYORDER=
